<?xml version="1.0" encoding="UTF-8" standalone="no"?>
<!-- Created with Inkscape (http://www.inkscape.org/) -->

<svg
   width="69.904762mm"
   height="66.670418mm"
   viewBox="0 0 69.904762 66.670418"
   version="1.1"
   id="svg1"
   xml:space="preserve"
   xmlns:inkscape="http://www.inkscape.org/namespaces/inkscape"
   xmlns:sodipodi="http://sodipodi.sourceforge.net/DTD/sodipodi-0.dtd"
   xmlns="http://www.w3.org/2000/svg"
   xmlns:svg="http://www.w3.org/2000/svg"><sodipodi:namedview
     id="namedview1"
     pagecolor="#ffffff"
     bordercolor="#000000"
     borderopacity="0.25"
     inkscape:showpageshadow="2"
     inkscape:pageopacity="0.0"
     inkscape:pagecheckerboard="0"
     inkscape:deskcolor="#d1d1d1"
     inkscape:document-units="mm" /><defs
     id="defs1" /><g
     inkscape:label="Layer 1"
     inkscape:groupmode="layer"
     id="layer1"
     transform="translate(283.7808,-654.45445)"><path
       d="m -258.46242,654.51023 c 0.79403,0.36865 1.21651,0.84439 1.6184,1.61839 0.1449,0.57619 0.21208,1.10907 0.0545,1.69122 -0.0728,0.55137 0.0796,0.73106 0.39812,1.17954 0.10092,0.14476 0.20184,0.28952 0.30582,0.43866 0.11021,0.15295 0.2204,0.30589 0.33395,0.46347 0.11146,0.15879 0.22291,0.31757 0.33774,0.48117 0.22577,0.32154 0.45246,0.64244 0.68008,0.96266 0.42281,0.59643 0.83562,1.19938 1.24794,1.80308 0.14067,0.20447 0.28144,0.40888 0.4223,0.61322 0.30572,0.44382 0.61074,0.8881 0.9154,1.33264 0.0808,0.1178 0.16158,0.23559 0.24482,0.35696 0.15425,0.22493 0.3084,0.44993 0.46244,0.67501 0.0695,0.10131 0.13904,0.20263 0.21068,0.30701 0.0911,0.13292 0.0911,0.13292 0.18397,0.26852 0.21892,0.31075 0.44725,0.61374 0.6758,0.91746 0.0247,-1.15468 0.0417,-2.3093 0.0533,-3.46419 0.005,-0.39261 0.0115,-0.78521 0.0199,-1.17776 0.0118,-0.56528 0.0173,-1.13033 0.0216,-1.69572 0.005,-0.17469 0.01,-0.34939 0.0152,-0.52938 3.7e-4,-0.84569 -0.021,-1.3904 -0.59134,-2.04262 -0.0874,-0.0822 -0.17479,-0.16445 -0.26483,-0.24917 -0.39566,-0.40091 -0.39111,-0.78023 -0.42718,-1.33039 0.0147,-0.89267 0.34138,-1.44108 0.93057,-2.10392 0.68945,-0.60326 1.35042,-0.57065 2.2291,-0.56138 0.82623,0.0852 1.25042,0.5135 1.78655,1.10759 0.46509,0.67179 0.48843,1.21056 0.43495,2.01288 -0.20189,0.59557 -0.35339,1.01312 -0.82231,1.43811 -0.38385,0.42285 -0.38964,0.61039 -0.38407,1.17329 5e-5,0.1652 1e-4,0.3304 1.6e-4,0.50061 0.003,0.17719 0.007,0.3544 0.0101,0.53697 10e-4,0.27343 10e-4,0.27343 0.002,0.55238 0.004,0.58215 0.0117,1.16415 0.02,1.74625 0.003,0.39469 0.006,0.78939 0.009,1.18408 0.007,0.96751 0.018,1.93493 0.0316,2.90237 0.0559,-0.0853 0.11185,-0.17052 0.16947,-0.25836 0.58768,-0.89577 1.17598,-1.79112 1.76462,-2.68625 0.21895,-0.33311 0.43774,-0.66632 0.65637,-0.99964 2.20007,-3.35377 2.20007,-3.35377 3.16812,-4.64917 0.43056,-0.57742 0.58628,-0.84809 0.54305,-1.56202 -0.0124,-0.77615 0.0943,-1.30032 0.49564,-1.98253 0.69639,-0.71497 1.23392,-0.99819 2.22529,-1.02162 0.85388,0.0102 1.34981,0.081 1.98253,0.69794 0.56038,0.75208 0.74794,1.30554 0.69857,2.24362 -0.12798,0.86424 -0.54608,1.41914 -1.22,1.95872 -0.32388,0.18833 -0.5795,0.22309 -0.94713,0.28554 -1.22059,0.39677 -1.80252,1.70325 -2.44593,2.73421 -0.15264,0.23893 -0.30567,0.47761 -0.45905,0.71607 -0.23907,0.3717 -0.47785,0.74356 -0.71514,1.1164 -0.5662,0.88699 -1.15648,1.75377 -1.76105,2.61496 -0.24682,0.35525 -0.49331,0.71072 -0.73972,1.06625 -0.15819,0.22645 -0.31779,0.4519 -0.47887,0.6763 -0.85381,1.19229 -1.51915,2.13777 -1.35536,3.67485 0.0549,0.58092 -0.11448,0.89512 -0.44853,1.36279 -0.30823,0.35508 -0.61818,0.65572 -0.97104,0.97104 -0.10681,0 -0.21363,0 -0.32368,0 -0.005,1.23105 -0.004,2.46197 0.005,3.693 0.004,0.57169 0.006,1.14322 0.002,1.71492 -0.004,0.65774 0.002,1.31513 0.009,1.97286 -0.004,0.30702 -0.004,0.30702 -0.007,0.62026 -2.5e-4,0.98249 -2.5e-4,0.98249 0.35805,1.87263 0.41946,0.3662 0.74328,0.48843 1.30105,0.47525 0.42779,-0.076 0.82996,-0.1872 1.2452,-0.31486 0.20972,-0.0576 0.20972,-0.0576 0.42367,-0.11633 0.95161,-0.26552 1.89291,-0.56693 2.83466,-0.86526 0.34379,-0.10784 0.68829,-0.21341 1.03346,-0.31672 0.50252,-0.15058 1.00236,-0.30815 1.5022,-0.46739 0.15358,-0.0446 0.30717,-0.0891 0.46542,-0.13505 0.81912,-0.27034 1.24291,-0.49521 1.66263,-1.26678 0.0819,-0.18555 0.0819,-0.18555 0.16538,-0.37484 0.32929,-0.67636 0.8919,-1.02522 1.55215,-1.3634 0.41962,-0.11835 0.76985,-0.13605 1.20369,-0.11126 0.0444,-0.0946 0.0889,-0.18924 0.13465,-0.28674 0.18309,-0.3493 0.38309,-0.64018 0.62397,-0.95171 0.1283,-0.16679 0.1283,-0.16679 0.2592,-0.33696 0.0914,-0.11766 0.18275,-0.23532 0.2769,-0.35655 0.0947,-0.12288 0.18942,-0.24575 0.28701,-0.37236 0.19216,-0.24923 0.38456,-0.49828 0.57718,-0.74716 0.36034,-0.46557 0.7191,-0.93234 1.07788,-1.39911 0.12851,-0.1669 0.25702,-0.33379 0.38943,-0.50575 0.58195,-0.75653 1.16176,-1.51471 1.73993,-2.27413 0.41913,-0.54993 0.84062,-1.09729 1.2718,-1.63784 0.075,-0.0948 0.15,-0.18963 0.22727,-0.28733 0.20138,-0.254 0.40424,-0.50683 0.60722,-0.75957 0.42627,-0.63759 0.44839,-1.13442 0.50828,-1.88897 0.086,-0.68187 0.30304,-1.101 0.75862,-1.62851 0.78302,-0.59509 1.38635,-0.75318 2.3688,-0.70995 0.78423,0.12833 1.21917,0.55745 1.72777,1.13478 0.53728,0.75618 0.53178,1.41676 0.43494,2.32644 -0.21418,0.6499 -0.57403,1.06955 -1.09241,1.51725 -0.52598,0.26299 -0.52598,0.26299 -1.13668,0.2769 -0.61236,0.0686 -0.85627,0.25738 -1.2492,0.72702 -0.18625,0.24926 -0.36858,0.50149 -0.54747,0.75609 -0.0979,0.13267 -0.19587,0.26534 -0.29677,0.40203 -0.19724,0.2673 -0.39308,0.53564 -0.58742,0.80505 -0.35251,0.48613 -0.71924,0.95919 -1.08823,1.43293 -0.26653,0.34715 -0.53291,0.69441 -0.79908,1.04184 -0.12748,0.16632 -0.12748,0.16632 -0.25754,0.33601 -0.2784,0.36332 -0.55667,0.72674 -0.83488,1.0902 -0.086,0.11225 -0.17193,0.22451 -0.2605,0.34016 -0.0834,0.1091 -0.16688,0.21819 -0.25284,0.33059 -0.0727,0.0951 -0.14551,0.19018 -0.22047,0.28816 -0.41855,0.55189 -0.83349,1.10648 -1.24873,1.66087 0.92142,-0.2903 1.8427,-0.58105 2.76384,-0.87222 0.31295,-0.0988 0.62593,-0.19758 0.93895,-0.29618 0.45167,-0.1423 0.9032,-0.28504 1.3547,-0.42787 0.20769,-0.0653 0.20769,-0.0653 0.41957,-0.13187 0.38702,-0.12269 0.77286,-0.24842 1.15837,-0.37577 0.12349,-0.0396 0.24698,-0.0792 0.37421,-0.12001 0.62115,-0.2119 0.95987,-0.33172 1.2543,-0.92184 0.0482,-0.0985 0.0964,-0.19693 0.14604,-0.29839 0.30692,-0.5096 0.75319,-0.74971 1.3004,-0.92552 0.7925,-0.12359 1.51819,-0.10767 2.24553,0.25287 0.70653,0.5511 1.07765,1.04351 1.21443,1.92058 0.0461,0.97805 -0.11642,1.57877 -0.70868,2.35806 -0.6176,0.60216 -1.10739,0.69048 -1.94208,0.70805 -0.53501,-0.007 -0.89998,-0.0275 -1.38725,-0.25493 -0.80905,-0.18875 -1.38073,0.0634 -2.1492,0.33458 -0.15156,0.0508 -0.30311,0.1015 -0.45926,0.15379 -0.48302,0.16222 -0.96459,0.32833 -1.44615,0.49484 -0.48291,0.16467 -0.96609,0.32852 -1.44962,0.49137 -0.30049,0.10144 -0.60059,0.20406 -0.90024,0.30798 -0.20421,0.0696 -0.20421,0.0696 -0.41256,0.14063 -0.11926,0.0412 -0.23852,0.0824 -0.3614,0.12493 -0.33547,0.0882 -0.33547,0.0882 -0.98283,0.0882 0,0.10681 0,0.21362 0,0.32367 0.24923,0.0316 0.24923,0.0316 0.50349,0.0638 0.56629,0.0882 1.08733,0.21088 1.63654,0.37151 0.19171,0.0556 0.38342,0.11119 0.58095,0.16847 0.20401,0.0598 0.40803,0.1197 0.61823,0.18137 0.21412,0.062 0.42827,0.1238 0.64245,0.18552 0.90518,0.261 1.80992,0.52349 2.71406,0.78805 0.55492,0.16229 1.11034,0.32279 1.6661,0.4822 0.31316,0.0904 0.62574,0.18277 0.93832,0.27518 0.19069,0.0546 0.38138,0.10914 0.57785,0.16537 0.16729,0.0488 0.33458,0.0975 0.50694,0.14772 0.6076,0.11122 1.04206,0.0348 1.59121,-0.23978 1.10767,-0.12353 1.85878,-0.031 2.75127,0.64736 0.59659,0.61189 0.6965,1.11366 0.72828,1.94207 -0.0308,0.82817 -0.14107,1.32397 -0.72828,1.94208 -0.59532,0.55175 -1.0591,0.69573 -1.85104,0.72827 -0.86967,-0.0366 -1.35058,-0.18504 -2.03311,-0.72827 -0.0905,-0.18535 -0.18103,-0.3707 -0.27429,-0.56166 -0.31636,-0.57173 -0.64866,-0.75914 -1.28539,-0.94656 -0.12327,-0.0316 -0.24654,-0.0631 -0.37355,-0.0956 -0.13264,-0.0379 -0.26529,-0.0757 -0.40196,-0.11474 -0.29742,-0.0847 -0.59537,-0.16759 -0.89372,-0.24897 -0.52907,-0.14621 -1.05513,-0.30089 -1.58124,-0.45742 -0.98922,-0.29406 -1.98007,-0.582 -2.97183,-0.8674 -0.41328,-0.11927 -0.82632,-0.23916 -1.23908,-0.36019 -0.60302,-0.17681 -1.20687,-0.35066 -1.81082,-0.52427 -0.18442,-0.0544 -0.36884,-0.10886 -0.55885,-0.16494 -0.17146,-0.0488 -0.34292,-0.0974 -0.51958,-0.14764 -0.22489,-0.0652 -0.22489,-0.0652 -0.45434,-0.13161 -0.61504,-0.10572 -1.06245,0.0189 -1.63006,0.25832 -0.88777,0.33617 -1.87452,0.28078 -2.74558,-0.0676 -0.23781,-0.15081 -0.47531,-0.30209 -0.71192,-0.45475 -0.47745,-0.17988 -0.70876,-0.0784 -1.18847,0.0839 -0.25031,0.0827 -0.25031,0.0827 -0.50567,0.16699 -0.26883,0.0928 -0.26883,0.0928 -0.54309,0.18743 -0.27709,0.0923 -0.27709,0.0923 -0.55978,0.18644 -0.59115,0.19732 -1.18114,0.39788 -1.77109,0.59873 -0.59071,0.19912 -1.18164,0.39756 -1.77282,0.59527 -0.36812,0.12333 -0.73593,0.24758 -1.1034,0.37282 -0.16635,0.0562 -0.33272,0.11226 -0.50412,0.17009 -0.14647,0.0498 -0.29295,0.0997 -0.44385,0.15106 -0.37352,0.10663 -0.37352,0.10663 -0.85904,0.10663 -0.0351,0.26036 -0.0351,0.26036 -0.0708,0.52598 -0.091,0.6069 -0.091,0.6069 -0.22126,0.90908 -0.0429,0.46917 0.16161,0.67933 0.44715,1.0347 0.0723,0.0862 0.14465,0.17245 0.21917,0.26129 0.15207,0.18916 0.30379,0.37861 0.45518,0.56833 0.078,0.0971 0.15604,0.19417 0.23643,0.29421 0.35173,0.44658 0.67999,0.90853 1.0077,1.37286 0.065,0.0909 0.13003,0.18177 0.19701,0.27541 0.39826,0.55763 0.78747,1.12055 1.17231,1.68753 0.18415,0.26618 0.36833,0.53233 0.55253,0.79846 0.12683,0.1911 0.12683,0.1911 0.25623,0.38606 0.42423,0.6073 0.64871,0.90312 1.35395,1.18112 0.17962,0.0303 0.35925,0.0605 0.54431,0.0917 0.89965,0.26928 1.48477,0.55174 2.10392,1.29472 0.0656,0.13314 0.13117,0.26628 0.19874,0.40345 0.38463,0.5442 0.71703,0.6334 1.34505,0.84891 0.11144,0.0391 0.22288,0.0783 0.3377,0.11866 0.25397,0.0888 0.5084,0.17636 0.7632,0.26279 0.46945,0.15976 0.93722,0.32391 1.40493,0.48868 0.90812,0.31922 1.81747,0.63476 2.72734,0.94895 0.56895,0.19654 1.13766,0.3938 1.70634,0.59113 0.36645,0.12679 0.7329,0.25355 1.09938,0.38026 0.1676,0.0582 0.33521,0.11633 0.50789,0.17627 0.76351,0.26316 1.52856,0.52163 2.29814,0.76651 0.12736,0.0409 0.25472,0.0817 0.38594,0.12375 0.49457,0.10281 0.83971,-0.0795 1.3054,-0.25417 0.91902,-0.067 1.61508,0.074 2.34667,0.64736 0.63274,0.62633 0.87029,1.21735 0.89012,2.10391 -0.0562,0.72768 -0.22991,1.17751 -0.68782,1.74989 -0.83741,0.66613 -1.46752,0.95338 -2.54897,0.83954 -0.9478,-0.29414 -1.39789,-0.65626 -1.94208,-1.45655 -0.13149,-0.46529 -0.13149,-0.46529 -0.16184,-0.8092 -0.29621,-0.0584 -0.29621,-0.0584 -0.5984,-0.11782 -1.00584,-0.22418 -1.96534,-0.56808 -2.93615,-0.91011 -0.19475,-0.0678 -0.38949,-0.13559 -0.59013,-0.20544 -0.51329,-0.17876 -1.02634,-0.35816 -1.53927,-0.53797 -0.72623,-0.25452 -1.4527,-0.50836 -2.17941,-0.76153 -0.38616,-0.13456 -0.77214,-0.26963 -1.15794,-0.40524 -0.26023,-0.0908 -0.26023,-0.0908 -0.52571,-0.18339 -0.15301,-0.0536 -0.30603,-0.1073 -0.46368,-0.16257 -0.35446,-0.13063 -0.35446,-0.13063 -0.69073,-0.11456 1.37316,1.96417 2.77695,3.9037 4.20783,5.82623 0.0832,0.11817 0.16636,0.23634 0.25205,0.35809 0.20906,0.31688 0.20906,0.31688 0.55968,0.37777 0.11933,0.0108 0.23866,0.0217 0.36161,0.0328 0.79727,0.15112 1.19397,0.48292 1.68731,1.11771 0.3704,0.65558 0.45772,1.25296 0.37615,1.99771 -0.25779,0.86726 -0.68847,1.44971 -1.45656,1.94207 -0.83624,0.27875 -1.63555,0.26795 -2.46805,-0.0202 -0.67645,-0.46121 -1.15208,-0.96795 -1.4161,-1.76001 0.0173,-0.11411 0.0346,-0.22823 0.0525,-0.3458 0.1391,-0.97672 -0.0718,-1.56522 -0.64017,-2.33712 -0.35059,-0.44718 -0.70757,-0.88875 -1.06768,-1.3283 -0.49405,-0.61769 -0.95009,-1.26239 -1.40946,-1.90604 -0.17002,-0.23625 -0.34008,-0.47248 -0.51017,-0.70868 -0.42783,-0.59578 -0.85393,-1.1928 -1.28018,-1.78972 0.0431,1.04113 0.0862,2.08227 0.1294,3.12339 0.0146,0.35245 0.0292,0.7049 0.0438,1.05734 0.0105,0.25406 0.0105,0.25406 0.0212,0.51326 0.007,0.16958 0.014,0.33918 0.0212,0.51391 0.0143,0.34267 0.029,0.68532 0.0439,1.02795 0.0371,0.85166 0.07,1.70304 0.094,2.55518 0.006,0.16233 0.0106,0.32467 0.0162,0.49193 0.01,0.30582 0.0182,0.6117 0.0244,0.91763 0.0276,0.779 0.0842,1.29882 0.57699,1.93739 0.59629,0.77975 0.7703,1.44234 0.64736,2.42759 -0.22616,0.75342 -0.53213,1.20066 -1.14299,1.69932 -0.76872,0.37111 -1.58604,0.36709 -2.41748,0.24276 -0.71008,-0.34859 -1.21715,-0.77294 -1.61839,-1.45656 -0.26681,-0.99662 -0.2124,-1.74001 0.2908,-2.63937 0.19472,-0.27374 0.19472,-0.27374 0.44818,-0.48177 0.32103,-0.38389 0.27946,-0.61163 0.25544,-1.10692 -0.007,-0.17455 -0.0144,-0.3491 -0.0218,-0.52894 -0.0105,-0.19263 -0.021,-0.38525 -0.0319,-0.58371 -0.014,-0.31098 -0.028,-0.62196 -0.042,-0.93293 -0.0162,-0.34774 -0.0335,-0.69539 -0.0511,-1.04305 -0.0432,-0.85904 -0.0802,-1.71833 -0.11734,-2.57766 -0.0274,-0.62313 -0.0551,-1.24625 -0.0828,-1.86937 -0.007,-0.15126 -0.0135,-0.30253 -0.0204,-0.45838 -0.0197,-0.4379 -0.04,-0.87577 -0.0606,-1.31364 -0.006,-0.12898 -0.0114,-0.25798 -0.0174,-0.39087 -0.018,-0.37511 -0.0395,-0.74971 -0.0635,-1.12448 -0.009,-0.14373 -0.018,-0.28747 -0.0272,-0.43556 -0.0113,-0.14371 -0.0225,-0.28741 -0.0341,-0.43547 -0.01,-0.13043 -0.0195,-0.26086 -0.0294,-0.39525 -0.11943,-0.59165 -0.47369,-0.88681 -0.88027,-1.32315 -0.33512,-0.75534 -0.30627,-1.20599 -0.14161,-2.00277 0.12482,-1.4176 -0.52618,-2.1092 -1.38955,-3.14006 -0.14136,-0.16614 -0.14136,-0.16614 -0.28559,-0.33562 -0.49154,-0.59528 -0.9324,-1.22608 -1.37959,-1.85491 -0.0891,-0.12217 -0.17816,-0.24435 -0.26994,-0.37022 -0.38533,-0.52867 -0.7608,-1.05548 -1.09937,-1.61548 -0.10223,-0.16251 -0.20445,-0.32503 -0.30978,-0.49247 -0.0805,-0.13894 -0.16105,-0.27788 -0.24402,-0.42103 -0.55804,-0.41807 -1.03346,-0.42511 -1.71963,-0.3952 -0.81531,0.19879 -1.12912,0.78304 -1.55635,1.46359 -0.19174,0.28218 -0.38351,0.56435 -0.57529,0.8465 -0.0953,0.14486 -0.19058,0.28972 -0.28876,0.43897 -0.45405,0.68182 -0.93884,1.34052 -1.42194,2.0019 -0.24372,0.33879 -0.4871,0.6778 -0.7301,1.01711 -0.16858,0.22962 -0.34163,0.45599 -0.51792,0.67975 -0.0893,0.11368 -0.17852,0.22735 -0.27049,0.34446 -0.1224,0.15219 -0.1224,0.15219 -0.24727,0.30744 -0.22724,0.31535 -0.22724,0.31535 -0.15607,0.85769 0.0467,0.18692 0.0935,0.37385 0.14161,0.56643 0.0918,0.9249 -0.0308,1.59651 -0.48552,2.4276 -0.13705,0.12186 -0.27412,0.24373 -0.41533,0.36929 -0.4901,0.54739 -0.50062,0.81499 -0.51544,1.5409 -0.005,0.16124 -0.005,0.16124 -0.01,0.32574 -0.01,0.35408 -0.0141,0.70799 -0.0183,1.06218 -0.006,0.2482 -0.0119,0.49638 -0.0183,0.74456 -0.016,0.65346 -0.0272,1.30691 -0.0375,1.96048 -0.0112,0.65894 -0.0271,1.31776 -0.0425,1.97662 -0.0313,1.38602 -0.0568,2.77195 -0.0755,4.1582 -0.004,0.19103 -0.009,0.38206 -0.0132,0.57888 -0.004,0.26106 -0.004,0.26106 -0.008,0.52741 -0.005,0.22637 -0.005,0.22637 -0.009,0.45732 0.0453,0.55013 0.29084,0.81142 0.67848,1.18767 0.39636,0.6606 0.36334,1.27802 0.27121,2.02172 -0.20821,0.77268 -0.71019,1.3048 -1.37753,1.72651 -0.81243,0.31529 -1.84346,0.31169 -2.65392,-0.006 -0.70567,-0.45839 -1.02205,-0.9858 -1.25678,-1.80046 -0.11938,-0.86754 0.0127,-1.52271 0.48552,-2.26576 0.33379,-0.38437 0.33379,-0.38437 0.64735,-0.64736 0.10681,0 0.21363,0 0.32368,0 0,-3.7919 0,-7.58381 0,-11.49061 -0.96133,1.36188 -0.96133,1.36188 -1.94207,2.75127 -0.40599,0.55808 -0.81258,1.11493 -1.22391,1.66897 -0.0952,0.12882 -0.19048,0.25765 -0.2886,0.39038 -0.72749,0.98347 -0.72749,0.98347 -1.02379,1.35307 -0.28886,0.41639 -0.24857,0.68012 -0.21498,1.17978 0.0183,0.7652 -0.0276,1.24031 -0.48552,1.88139 -0.65174,0.65352 -1.22331,0.99219 -2.15449,1.0115 -0.80109,-0.013 -1.37191,-0.17987 -1.96293,-0.75168 -0.59258,-0.66686 -0.71455,-1.07923 -0.77823,-1.93891 0.0587,-0.85016 0.35569,-1.33733 0.86989,-2.00277 0.47631,-0.37276 0.59985,-0.40539 1.16449,-0.47793 0.88606,-0.18347 1.20497,-0.61082 1.68794,-1.34276 0.0797,-0.11336 0.15938,-0.22672 0.24149,-0.34352 0.17025,-0.24238 0.3389,-0.48589 0.50607,-0.73041 0.3632,-0.52654 0.74099,-1.04193 1.11817,-1.5585 0.65038,-0.89126 1.29169,-1.78572 1.89704,-2.70828 -1.14514,0.32938 -2.2651,0.70713 -3.38346,1.11771 -0.16271,0.0592 -0.32541,0.11845 -0.49305,0.17948 -0.5152,0.18755 -1.03019,0.37568 -1.54512,0.56396 -0.6792,0.24835 -1.35862,0.49608 -2.03817,0.74345 -0.15295,0.0562 -0.3059,0.11231 -0.46349,0.17017 -0.96414,0.35089 -1.93393,0.66392 -2.91997,0.94754 -0.0217,0.12763 -0.0435,0.25525 -0.0659,0.38674 -0.11236,0.49456 -0.24453,0.6331 -0.63207,0.94844 -0.0962,0.0809 -0.19235,0.16189 -0.29144,0.24528 -0.64734,0.42352 -1.32866,0.42469 -2.08558,0.36161 -0.71188,-0.23285 -1.19115,-0.5305 -1.6892,-1.09241 -0.40565,-0.84373 -0.4696,-1.49686 -0.31357,-2.41748 0.34285,-0.82594 0.79121,-1.20653 1.55771,-1.64874 0.74254,-0.22276 1.31454,-0.19622 2.06345,-0.0203 0.1149,0.0632 0.2298,0.12637 0.34818,0.19148 0.65101,0.18669 1.11365,-0.0242 1.7216,-0.25786 0.12373,-0.0451 0.24745,-0.0902 0.37493,-0.13666 0.40663,-0.14894 0.81172,-0.30167 1.21692,-0.45443 0.28128,-0.10374 0.56266,-0.20723 0.84412,-0.31048 0.87305,-0.32121 1.74417,-0.64746 2.6152,-0.97412 0.28115,-0.10513 0.56231,-0.21021 0.84349,-0.31523 0.20395,-0.0762 0.20395,-0.0762 0.41203,-0.15391 0.26688,-0.0996 0.53378,-0.19919 0.80071,-0.29871 0.62432,-0.23277 1.24826,-0.46647 1.8713,-0.70266 0.22408,-0.0843 0.44817,-0.16857 0.67225,-0.25283 0.1946,-0.0737 0.38919,-0.14745 0.58967,-0.2234 0.47493,-0.15718 0.47493,-0.15718 0.96045,-0.15718 0.0235,-0.18212 0.0235,-0.18212 0.0474,-0.36793 0.19907,-0.76771 0.7476,-1.17142 1.40914,-1.57414 0.30829,-0.0612 0.61892,-0.11119 0.93058,-0.15173 1.39038,-0.28959 1.96154,-1.43469 2.70101,-2.54747 0.34233,-0.50932 0.70259,-1.00459 1.06397,-1.50049 0.17967,-0.24692 0.35818,-0.49468 0.53547,-0.7433 0.39447,-0.55306 0.79242,-1.09691 1.22486,-1.621 0.0702,-0.0866 0.14032,-0.17327 0.21261,-0.26252 0.18485,-0.22588 0.37381,-0.4484 0.56308,-0.67059 0.27375,-0.44315 0.27375,-0.44315 0.0872,-1.01276 -0.0653,-0.18254 -0.1306,-0.36509 -0.19787,-0.55316 0,-0.21363 0,-0.42726 0,-0.64736 -0.20428,-0.0416 -0.40856,-0.0831 -0.61903,-0.12596 -0.88381,-0.19679 -1.7296,-0.47892 -2.58552,-0.77174 -0.33155,-0.11116 -0.66314,-0.22221 -0.99475,-0.33317 -0.51783,-0.17406 -1.03539,-0.34886 -1.55237,-0.52543 -0.5023,-0.17115 -1.00552,-0.33926 -1.50899,-0.50693 -0.15493,-0.0538 -0.30986,-0.10751 -0.46949,-0.1629 -0.1443,-0.0476 -0.28859,-0.0952 -0.43726,-0.14418 -0.18964,-0.0643 -0.18964,-0.0643 -0.3831,-0.12991 -0.58801,-0.0856 -0.92958,0.22921 -1.41275,0.53561 -0.78268,0.31307 -1.50323,0.32263 -2.33656,0.22253 -0.16689,-0.0868 -0.33379,-0.17357 -0.50574,-0.26299 -1.08155,-0.51726 -2.86414,0.36902 -3.95943,0.6999 -0.33747,0.1019 -0.67514,0.20308 -1.01287,0.30409 -0.95914,0.28699 -1.91789,0.57525 -2.87653,0.86392 -0.58912,0.17735 -1.17846,0.35391 -1.76795,0.53 -0.22321,0.0669 -0.44632,0.13401 -0.66934,0.20151 -0.31216,0.0945 -0.62465,0.18784 -0.93716,0.28118 -0.1771,0.0533 -0.35419,0.10658 -0.53666,0.16148 -0.5489,0.14157 -1.09039,0.22571 -1.65252,0.29586 -0.01,0.0901 -0.02,0.18025 -0.0303,0.27311 -0.21828,0.62126 -0.68261,1.02497 -1.23719,1.36552 -0.68471,0.27635 -1.40761,0.22561 -2.1311,0.14161 -0.78732,-0.37237 -1.25161,-0.82857 -1.6184,-1.61858 -0.12149,-0.90253 -0.12096,-1.67112 0.25288,-2.50851 0.73066,-0.7494 1.30809,-1.08685 2.34667,-1.12277 0.53078,6.1e-4 0.77719,0.0579 1.24182,0.33143 0.66488,0.28304 0.93278,0.20565 1.62199,0.009 0.10927,-0.0302 0.21856,-0.0605 0.33115,-0.0917 0.38945,-0.10937 0.77693,-0.22457 1.1646,-0.34012 0.32108,-0.0935 0.64218,-0.18693 0.96329,-0.28029 0.89186,-0.26121 1.78196,-0.52798 2.67154,-0.79684 0.55936,-0.169 1.119,-0.33702 1.67869,-0.50492 0.35594,-0.1071 0.71186,-0.21425 1.06776,-0.32146 0.16721,-0.0502 0.33442,-0.10047 0.5067,-0.15223 0.15362,-0.0465 0.30725,-0.093 0.46553,-0.14091 0.13522,-0.0408 0.27044,-0.0816 0.40976,-0.12368 0.33451,-0.1002 0.33451,-0.1002 0.65239,-0.26911 -1.06418,-0.35571 -2.12979,-0.70688 -3.19649,-1.05496 -0.36264,-0.11891 -0.72494,-0.23886 -1.08689,-0.35986 -0.52059,-0.17384 -1.04229,-0.34393 -1.56434,-0.51334 -0.16137,-0.0548 -0.32274,-0.10954 -0.489,-0.16598 -0.86436,-0.27612 -1.38596,-0.42345 -2.24078,-0.01 -0.89336,0.10003 -1.68086,0.11661 -2.50852,-0.25288 -0.7423,-0.72374 -1.08596,-1.30751 -1.13287,-2.33656 0.039,-0.82725 0.21783,-1.28765 0.72827,-1.94208 0.772,-0.60215 1.38154,-0.75468 2.35806,-0.70867 0.65794,0.1026 0.99534,0.29468 1.52609,0.70867 0.0911,0.18449 0.18213,0.36898 0.27596,0.55906 0.39249,0.71348 0.88604,0.8652 1.64083,1.08653 0.1238,0.0399 0.2476,0.0799 0.37515,0.12111 0.39474,0.12648 0.791,0.2471 1.18762,0.36757 0.26143,0.0825 0.52273,0.16545 0.78391,0.24876 0.50409,0.16026 1.00875,0.31843 1.51408,0.47469 0.88409,0.27426 1.76165,0.56691 2.63812,0.8646 -1.35121,-1.81346 -2.74052,-3.59678 -4.14027,-5.37287 -0.23688,-0.30101 -0.47313,-0.60249 -0.70923,-0.90411 -0.0789,-0.10067 -0.15775,-0.20135 -0.23901,-0.30507 -0.14938,-0.1907 -0.29866,-0.38148 -0.44783,-0.57236 -0.34809,-0.44398 -0.70178,-0.87929 -1.07001,-1.30677 -0.35276,-0.44 -0.35276,-0.44 -0.35276,-0.76368 -0.16689,0.0133 -0.33379,0.0267 -0.50575,0.0404 -0.74994,-0.0484 -1.0335,-0.19845 -1.59816,-0.68782 -0.5951,-0.78302 -0.75318,-1.38635 -0.70995,-2.36881 0.12833,-0.78422 0.55744,-1.21915 1.13478,-1.72776 0.75618,-0.53728 1.41675,-0.53177 2.32644,-0.43494 0.85842,0.2829 1.37373,0.82103 1.78024,1.6184 0.11939,0.55716 0.17139,1.02584 0.12075,1.59311 0.0548,0.6809 0.30825,0.95661 0.73902,1.48184 0.0727,0.0902 0.14544,0.18048 0.22036,0.27346 0.15404,0.19112 0.30899,0.38152 0.46477,0.57122 0.30396,0.37224 0.59976,0.75051 0.89546,1.12932 0.22233,0.28479 0.44569,0.56875 0.66936,0.8525 0.52124,0.66146 1.04144,1.32373 1.56158,1.98605 0.38054,0.48448 0.76142,0.96868 1.14292,1.45241 0.0776,0.0986 0.15523,0.19723 0.2352,0.29883 0.15303,0.19405 0.30651,0.38774 0.46047,0.58106 0.39658,0.50027 0.75874,1.00929 1.10669,1.54392 0.45757,0.62553 0.96297,0.72459 1.69489,0.8996 0.64948,0.19865 1.11353,0.56346 1.53179,1.09304 0.0327,0.0953 0.0654,0.19064 0.099,0.28884 0.20792,0.57311 0.39617,0.91808 0.93372,1.22827 0.5053,0.19521 1.012,0.35767 1.53139,0.51158 0.18793,0.0596 0.37587,0.11924 0.5695,0.18066 0.39651,0.12479 0.79377,0.24721 1.19169,0.36741 0.61012,0.18444 1.21769,0.37587 1.8252,0.56869 0.38572,0.12042 0.77156,0.24045 1.15754,0.36003 0.18225,0.057 0.36449,0.11391 0.55227,0.17258 0.25438,0.0764 0.25438,0.0764 0.5139,0.1543 0.22349,0.068 0.22349,0.068 0.45148,0.13736 0.61447,0.11743 0.98818,-0.0631 1.56433,-0.28486 0.63493,-0.62774 0.5735,-1.10874 0.58789,-1.97723 -0.001,-0.20552 -0.003,-0.41105 -0.004,-0.6228 0.002,-0.21102 0.004,-0.42204 0.007,-0.63946 0.006,-0.55983 0.006,-1.11951 0.005,-1.67936 -1.5e-4,-0.57174 0.005,-1.14344 0.01,-1.71515 0.009,-1.12088 0.0113,-2.2417 0.0101,-3.3626 -0.15187,-0.072 -0.15187,-0.072 -0.30681,-0.14545 -0.37987,-0.19882 -0.58248,-0.4071 -0.85641,-0.73455 -0.12361,-0.14489 -0.12361,-0.14489 -0.24971,-0.29271 -0.40805,-0.56373 -0.35687,-0.99816 -0.30598,-1.66075 0.007,-1.212 -0.48201,-1.87716 -1.20432,-2.8107 -0.23878,-0.32498 -0.47731,-0.65014 -0.71563,-0.97546 -0.12194,-0.16353 -0.24388,-0.32707 -0.36951,-0.49556 -0.56349,-0.76622 -1.09412,-1.55378 -1.62567,-2.34233 -0.19923,-0.29321 -0.39858,-0.58634 -0.59807,-0.87937 -0.0948,-0.13933 -0.18953,-0.27866 -0.28717,-0.42221 -0.49482,-0.72592 -0.99309,-1.44945 -1.492,-2.17255 -0.0657,-0.0952 -0.1313,-0.1905 -0.19894,-0.28864 -0.0623,-0.0896 -0.12465,-0.17917 -0.18886,-0.27148 -0.17748,-0.26318 -0.34211,-0.53487 -0.50655,-0.8064 -0.34619,-0.46548 -0.47454,-0.55231 -1.0273,-0.66189 -0.8379,-0.22953 -1.2423,-0.67841 -1.71954,-1.38576 -0.30343,-0.60685 -0.2477,-1.2813 -0.16184,-1.94207 0.67147,-1.66336 1.86858,-1.98455 3.56047,-1.78023 z"
       fill="#fafafa"
       id="path1-4"
       style="fill:#000000;stroke-width:0.161839" /></g><style
     type="text/css"
     id="style1">
	.st0{fill:#FFFFFF;}
</style></svg>
