<?xml version="1.0" encoding="UTF-8" standalone="no"?>
<!-- Created with Inkscape (http://www.inkscape.org/) -->

<svg
   width="75.551064mm"
   height="75.598877mm"
   viewBox="0 0 75.551064 75.598877"
   version="1.1"
   id="svg1"
   xml:space="preserve"
   xmlns:inkscape="http://www.inkscape.org/namespaces/inkscape"
   xmlns:sodipodi="http://sodipodi.sourceforge.net/DTD/sodipodi-0.dtd"
   xmlns="http://www.w3.org/2000/svg"
   xmlns:svg="http://www.w3.org/2000/svg"><sodipodi:namedview
     id="namedview1"
     pagecolor="#ffffff"
     bordercolor="#000000"
     borderopacity="0.25"
     inkscape:showpageshadow="2"
     inkscape:pageopacity="0.0"
     inkscape:pagecheckerboard="0"
     inkscape:deskcolor="#d1d1d1"
     inkscape:document-units="mm" /><defs
     id="defs1" /><g
     inkscape:label="Layer 1"
     inkscape:groupmode="layer"
     id="layer1"
     transform="translate(111.96237,-471.0425)"><path
       style="fill:#000000;stroke:none;stroke-width:0.523315"
       d="m -67.945487,546.51309 v -0.14768 c -11.922282,-7.44947 -13.044056,-25.14654 -3.243377,-34.6942 5.498261,-5.35634 12.226815,-6.94879 19.637102,-6.36394 V 481.529 c 0,-2.48336 0.886039,-7.09867 -0.727861,-9.14305 -1.059248,-1.34179 -2.741708,-1.34301 -4.293656,-1.34301 h -8.713768 -33.525873 -7.97534 c -1.45785,0 -2.99294,-0.0543 -4.10799,1.06119 -1.20016,1.20058 -1.06121,3.13452 -1.06121,4.69876 v 10.33837 42.38737 11.5199 c 0,1.7238 -0.0612,3.70719 1.49026,4.84064 1.10405,0.80654 2.53794,0.62392 3.82664,0.62392 h 7.82764 30.867433 m -33.230503,-67.89357 c 1.901316,-0.27411 3.987099,-0.0443 5.907637,-0.0443 h 11.372223 14.326054 c 2.372899,0 4.878241,-0.2308 7.23686,0.0256 3.49881,0.38043 4.494251,5.23601 1.476908,7.03035 -1.067316,0.63471 -2.356072,0.47624 -3.544582,0.47624 h -6.646109 -21.562914 -6.203007 c -1.03793,0 -2.26859,0.18032 -3.24922,-0.21901 -3.50461,-1.42724 -2.8068,-6.73654 0.88615,-7.2689 m 0.44308,15.06244 c 4.157796,-0.51088 8.65801,-0.0424 12.849127,-0.0424 2.376801,0 5.235775,-0.42738 7.53225,0.26369 3.375407,1.01575 3.042445,6.15516 -0.147695,7.15412 -1.655609,0.51845 -3.602677,0.26212 -5.316881,0.26212 h -10.042995 c -1.905478,0 -4.411016,0.4215 -6.203036,-0.32798 -3.90714,-1.6341 -2.43809,-6.84676 1.32923,-7.30968 m 43.421184,19.07312 c -13.00906,1.86369 -17.624286,18.98232 -7.089164,26.97917 3.268772,2.48123 7.624147,3.59352 11.667581,2.82002 1.176453,-0.22503 2.316748,-0.55657 3.396902,-1.07873 0.448739,-0.21693 1.098468,-0.76524 1.624618,-0.64466 0.670944,0.15376 1.306334,1.08093 1.772283,1.54688 1.590992,1.59099 3.74438,4.69384 6.350718,4.21388 2.470701,-0.45501 3.963141,-3.30364 2.744478,-5.54311 -0.734972,-1.35059 -2.256121,-2.46547 -3.335244,-3.54458 -0.540842,-0.54086 -1.984831,-1.53048 -1.979472,-2.36306 0.0059,-0.82082 0.91145,-1.99975 1.190204,-2.80613 0.630472,-1.8239 0.908166,-3.83265 0.776047,-5.75996 -0.584303,-8.52409 -8.669556,-15.03018 -17.118951,-13.81972 m 1.919994,7.37671 c 7.932859,-0.39328 10.42367,10.84399 3.544565,14.30609 -0.970855,0.4886 -2.010537,0.79746 -3.101509,0.84489 -7.799344,0.33901 -10.740322,-10.386 -3.987638,-14.19089 1.088045,-0.61307 2.30494,-0.89866 3.544582,-0.96009 z"
       id="path10"
       inkscape:export-filename="research.svg"
       inkscape:export-xdpi="96"
       inkscape:export-ydpi="96" /></g><style
     type="text/css"
     id="style1">
	.st0{fill:#FFFFFF;}
</style></svg>
