<?xml version="1.0" encoding="UTF-8" standalone="no"?>
<svg
   width="83.913063"
   height="56"
   overflow="hidden"
   version="1.1"
   id="svg4"
   sodipodi:docname="Picture1.svg"
   xml:space="preserve"
   xmlns:inkscape="http://www.inkscape.org/namespaces/inkscape"
   xmlns:sodipodi="http://sodipodi.sourceforge.net/DTD/sodipodi-0.dtd"
   xmlns="http://www.w3.org/2000/svg"
   xmlns:svg="http://www.w3.org/2000/svg"><sodipodi:namedview
     id="namedview4"
     pagecolor="#ffffff"
     bordercolor="#000000"
     borderopacity="0.25"
     inkscape:showpageshadow="2"
     inkscape:pageopacity="0.0"
     inkscape:pagecheckerboard="0"
     inkscape:deskcolor="#d1d1d1" /><defs
     id="defs1"><clipPath
       id="clip0-6"><rect
         x="0"
         y="0"
         width="96"
         height="96"
         id="rect1-7" /></clipPath></defs><g
     style="overflow:hidden;fill:#f9f9f9"
     id="g6"
     transform="translate(-6.0307104,-19.999997)"><g
       clip-path="url(#clip0-6)"
       id="g5"
       style="fill:#f9f9f9"><path
         d="m 83,25 c 0,2.7614 -2.2386,5 -5,5 -2.7614,0 -5,-2.2386 -5,-5 0,-2.7614 2.2386,-5 5,-5 2.7614,0 5,2.2386 5,5 z"
         id="path1-6"
         style="fill:#f9f9f9" /><path
         d="m 23,25 c 0,2.7614 -2.2386,5 -5,5 -2.7614,0 -5,-2.2386 -5,-5 0,-2.7614 2.2386,-5 5,-5 2.7614,0 5,2.2386 5,5 z"
         id="path2-6"
         style="fill:#f9f9f9" /><path
         d="m 63,25 c 0,2.7614 -2.2386,5 -5,5 -2.7614,0 -5,-2.2386 -5,-5 0,-2.7614 2.2386,-5 5,-5 2.7614,0 5,2.2386 5,5 z"
         id="path3-5"
         style="fill:#f9f9f9" /><path
         d="m 43,25 c 0,2.7614 -2.2386,5 -5,5 -2.7614,0 -5,-2.2386 -5,-5 0,-2.7614 2.2386,-5 5,-5 2.7614,0 5,2.2386 5,5 z"
         id="path4-3"
         style="fill:#f9f9f9" /><path
         d="M 89.9,49.5 86.7,34.9 C 86.6,34.5 86.4,34.1 86,33.8 84.8,32.9 83.5,32.1 82,31.7 80.7,31.3 79.4,31 78,31 c -1.4,0 -2.8,0.2 -4,0.7 -1.5,0.5 -2.8,1.2 -4,2.1 -0.4,0.3 -0.6,0.7 -0.7,1.1 L 68,40.8 v 0 L 66.7,34.9 C 66.6,34.5 66.4,34.1 66,33.8 64.8,32.9 63.5,32.1 62,31.7 60.7,31.3 59.4,31 58,31 c -1.4,0 -2.8,0.2 -4,0.7 -1.5,0.5 -2.8,1.2 -4,2.1 -0.4,0.3 -0.6,0.7 -0.7,1.1 L 48,40.7 v 0.1 L 46.7,34.9 C 46.6,34.5 46.4,34.1 46,33.8 44.8,32.9 43.5,32.1 42,31.7 40.7,31.3 39.4,31 38,31 c -1.4,0 -2.8,0.2 -4,0.7 -1.5,0.5 -2.8,1.2 -4,2.1 -0.4,0.3 -0.6,0.7 -0.7,1.1 L 28,40.7 v 0 L 26.7,34.9 C 26.6,34.5 26.4,34.1 26,33.8 24.8,32.9 23.5,32.1 22,31.7 20.7,31.3 19.4,31 18,31 c -1.4,0 -2.8,0.2 -4,0.7 -1.5,0.5 -2.8,1.2 -4,2.1 -0.4,0.3 -0.6,0.7 -0.7,1.1 L 6.1,49.4 c -0.3,1.1 0.4,2.3 1.6,2.5 0.1,0 0.2,0 0.3,0 0.9,0 1.7,-0.6 2,-1.6 L 13,37 v 7.1 L 10,59 h 3 v 17 h 4 V 59 h 2 v 17 h 4 V 59 h 3 L 23,44.1 V 37 l 3,13.4 c 0.2,0.9 1,1.6 1.9,1.6 v 0 c 0.9,0 1.7,-0.6 1.9,-1.6 L 33,37 v 16 23 h 4 V 53 h 2 v 23 h 4 V 53 37 l 3,13.4 c 0.2,0.9 1,1.6 2,1.6 0,0 0,0 0,0 v 0 c 0.9,0 1.7,-0.6 1.9,-1.6 L 53,37 v 7.2 L 50,59 h 3 v 17 h 4 V 59 h 2 v 17 h 4 V 59 h 3 L 63,44 v -7 l 3,13.4 c 0.2,0.9 1,1.6 2,1.6 0,0 0,0 0,0 v 0 c 0,0 0,0 0,0 0.9,0 1.7,-0.6 2,-1.6 L 73,37 v 16 23 h 4 V 53 h 2 v 23 h 4 V 53 37 l 3,13.4 c 0.2,0.9 1,1.6 2,1.6 0.2,0 0.5,0 0.7,-0.1 0.9,-0.4 1.4,-1.4 1.2,-2.4 z"
         id="path5"
         style="fill:#f9f9f9" /></g></g></svg>
