<?xml version="1.0" encoding="UTF-8" standalone="no"?>
<!-- Created with Inkscape (http://www.inkscape.org/) -->

<svg
   width="19.118277mm"
   height="14.816667mm"
   viewBox="0 0 19.118277 14.816667"
   version="1.1"
   id="svg1"
   xml:space="preserve"
   xmlns:inkscape="http://www.inkscape.org/namespaces/inkscape"
   xmlns:sodipodi="http://sodipodi.sourceforge.net/DTD/sodipodi-0.dtd"
   xmlns="http://www.w3.org/2000/svg"
   xmlns:svg="http://www.w3.org/2000/svg"><sodipodi:namedview
     id="namedview1"
     pagecolor="#ffffff"
     bordercolor="#000000"
     borderopacity="0.25"
     inkscape:showpageshadow="2"
     inkscape:pageopacity="0.0"
     inkscape:pagecheckerboard="0"
     inkscape:deskcolor="#d1d1d1"
     inkscape:document-units="mm" /><defs
     id="defs1"><clipPath
       id="clip0"><rect
         x="0"
         y="0"
         width="96"
         height="96"
         id="rect1" /></clipPath></defs><g
     inkscape:label="Layer 1"
     inkscape:groupmode="layer"
     id="layer1"
     transform="translate(598.32893,-457.33129)"><g
       style="overflow:hidden;fill:#1a1a1a"
       id="g2"
       transform="matrix(0.26458333,0,0,0.26458333,-598.32895,457.33129)"><g
         clip-path="url(#clip0)"
         id="g4"
         style="fill:#1a1a1a"
         transform="matrix(0.90322581,0,0,0.90322581,-7.2258032,-15.354831)"><path
           d="m 14,65 h 4 v 4 h -4 z m 0,-8 h 4 v 4 h -4 z m 0,-8 h 4 v 4 h -4 z m 8,16 h 4 v 4 h -4 z m 0,-8 h 4 v 4 h -4 z m 0,-8 h 4 v 4 H 22 Z M 8,79 h 10 v -6 h 4 v 6 H 32 V 43 H 8 Z"
           id="path1"
           style="fill:#1a1a1a" /><path
           d="m 42,65 h 4 v 4 h -4 z m 0,-8 h 4 v 4 h -4 z m 8,8 h 4 v 4 h -4 z m 0,-8 h 4 v 4 H 50 Z M 36,79 h 10 v -6 h 4 v 6 H 60 V 51 H 36 Z"
           id="path2"
           style="fill:#1a1a1a" /><path
           d="m 82,30 h -4 v -4 h 4 z m 0,7 h -4 v -4 h 4 z m 0,8 h -4 v -4 h 4 z m 0,8 h -4 v -4 h 4 z m 0,8 h -4 v -4 h 4 z m 0,8 h -4 v -4 h 4 z M 74,30 h -4 v -4 h 4 z m 0,7 h -4 v -4 h 4 z m 0,8 h -4 v -4 h 4 z m 0,8 h -4 v -4 h 4 z m 0,8 h -4 v -4 h 4 z m 0,8 h -4 v -4 h 4 z M 64,19 v 60 h 10 v -6 h 4 v 6 H 88 V 22 Z"
           id="path3"
           style="fill:#1a1a1a" /><path
           d="m 36,31 h 4 v 4 h -4 z m 0,-8 h 4 v 4 h -4 z m -4,4 h -4 v -4 h 4 z m 0,8 h -4 v -4 h 4 z m 4,12 H 46 V 17 H 22 v 22 h 14 z"
           id="path4"
           style="fill:#1a1a1a" /></g></g></g></svg>
