<?xml version="1.0" encoding="UTF-8" standalone="no"?>
<!-- Created with Inkscape (http://www.inkscape.org/) -->

<svg
   width="51.317055mm"
   height="51.349499mm"
   viewBox="0 0 51.317055 51.349499"
   version="1.1"
   id="svg1"
   xml:space="preserve"
   xmlns:inkscape="http://www.inkscape.org/namespaces/inkscape"
   xmlns:sodipodi="http://sodipodi.sourceforge.net/DTD/sodipodi-0.dtd"
   xmlns="http://www.w3.org/2000/svg"
   xmlns:svg="http://www.w3.org/2000/svg"><sodipodi:namedview
     id="namedview1"
     pagecolor="#ffffff"
     bordercolor="#000000"
     borderopacity="0.25"
     inkscape:showpageshadow="2"
     inkscape:pageopacity="0.0"
     inkscape:pagecheckerboard="0"
     inkscape:deskcolor="#d1d1d1"
     inkscape:document-units="mm" /><defs
     id="defs1" /><g
     inkscape:label="Layer 1"
     inkscape:groupmode="layer"
     id="layer1"
     transform="translate(343.36387,-161.54066)"><path
       style="fill:#f9f9f9;stroke:none;stroke-width:0.355455"
       d="m -313.46598,212.80303 v -0.10031 c -8.09805,-5.05995 -8.86,-17.08045 -2.20302,-23.56557 3.73462,-3.63822 8.3049,-4.71987 13.33824,-4.32262 v -16.15107 c 0,-1.68679 0.60183,-4.82168 -0.49439,-6.2103 -0.71948,-0.91139 -1.86227,-0.91222 -2.91641,-0.91222 h -5.91871 -22.772 -5.41714 c -0.99023,0 -2.03292,-0.0369 -2.7903,0.7208 -0.81519,0.81548 -0.72081,2.12908 -0.72081,3.19157 v 7.0222 28.79105 7.82474 c 0,1.17087 -0.0416,2.51806 1.01224,3.28794 0.74991,0.54783 1.72386,0.42379 2.59919,0.42379 h 5.31682 20.96629 m -22.57137,-46.1158 c 1.29144,-0.18618 2.70818,-0.0301 4.01268,-0.0301 h 7.72443 9.73078 c 1.61176,0 3.31348,-0.15677 4.91554,0.0174 2.37652,0.2584 3.05266,3.55649 1.00317,4.77527 -0.72496,0.43112 -1.60033,0.32348 -2.40761,0.32348 h -4.51428 -14.64632 -4.21331 c -0.705,0 -1.54091,0.12248 -2.20699,-0.14876 -2.38046,-0.96943 -1.90648,-4.5757 0.60191,-4.9373 m 0.30095,10.23096 c 2.82413,-0.34701 5.88084,-0.0288 8.7276,-0.0288 1.61441,0 3.55633,-0.29029 5.11618,0.17911 2.2927,0.68993 2.06654,4.18081 -0.10032,4.85934 -1.12455,0.35215 -2.44707,0.17804 -3.61142,0.17804 h -6.82157 c -1.29427,0 -2.99612,0.2863 -4.21333,-0.22278 -2.65387,-1.10994 -1.65604,-4.65057 0.90286,-4.965 m 29.49326,12.95516 c -8.83623,1.26589 -11.97106,12.89349 -4.81522,18.32524 2.22027,1.68534 5.1786,2.44085 7.92505,1.91546 0.79909,-0.15285 1.57362,-0.37804 2.3073,-0.73271 0.3048,-0.14735 0.74612,-0.51978 1.1035,-0.43788 0.45573,0.10444 0.88731,0.73421 1.2038,1.0507 1.08066,1.08066 2.54332,3.18823 4.31364,2.86222 1.67819,-0.30906 2.69191,-2.24395 1.86415,-3.76508 -0.49922,-0.91737 -1.53244,-1.67464 -2.26542,-2.40761 -0.36736,-0.36737 -1.34817,-1.03956 -1.34453,-1.60508 0.004,-0.55753 0.61909,-1.3583 0.80843,-1.90602 0.42824,-1.23886 0.61686,-2.60328 0.52712,-3.91238 -0.39688,-5.78987 -5.88868,-10.20905 -11.62782,-9.38686 m 1.30413,5.01053 c 5.38829,-0.26713 7.08014,7.36564 2.4076,9.71722 -0.65944,0.33188 -1.36563,0.54167 -2.10666,0.57388 -5.2976,0.23027 -7.29522,-7.05455 -2.70855,-9.63897 0.73904,-0.41642 1.5656,-0.6104 2.40761,-0.65213 z"
       id="path10"
       inkscape:export-filename="research.svg"
       inkscape:export-xdpi="96"
       inkscape:export-ydpi="96" /></g></svg>
